<svg width="205" height="131" viewBox="0 0 205 131" fill="none" xmlns="http://www.w3.org/2000/svg">
<path d="M43.2333 105.746C43.2486 106.014 43.27 106.315 43.2973 106.648C43.3516 106.943 43.3893 107.241 43.4107 107.541C43.426 107.809 43.4548 108.058 43.4969 108.287C43.5391 108.517 43.535 108.771 43.4845 109.049C43.4489 109.224 43.4492 109.41 43.4853 109.607C43.5154 109.771 43.5486 109.951 43.5847 110.148C43.6149 110.312 43.648 110.492 43.6841 110.689C43.7143 110.853 43.7279 111.019 43.7252 111.189C43.7405 111.457 43.7424 111.743 43.7309 112.049C43.7462 112.317 43.7451 112.588 43.7275 112.861C43.7187 112.998 43.6965 113.153 43.6609 113.328C43.6192 113.47 43.5746 113.596 43.5269 113.706L43.2449 114.107C43.0838 114.337 42.8657 114.441 42.5906 114.419C42.4142 114.381 42.2408 114.36 42.0704 114.354C41.9328 114.343 41.7939 114.417 41.6536 114.576C41.3934 114.45 41.0898 114.366 40.7429 114.322L40.2005 114.413C40.1347 114.424 40.0659 114.419 39.9941 114.397C39.9224 114.375 39.8536 114.37 39.7878 114.381C39.6952 114.43 39.6026 114.479 39.51 114.528C39.4174 114.578 39.3412 114.624 39.2815 114.668C39.0842 114.701 38.9497 114.706 38.8779 114.685C38.462 114.45 38.2149 114.12 38.1366 113.693C38.0375 113.338 37.9085 113.005 37.7496 112.694C37.5847 112.349 37.4198 112.005 37.2548 111.661C37.2724 111.388 37.2376 111.106 37.1505 110.817C37.0963 110.522 37.0585 110.224 37.0372 109.923C37.0399 109.754 37.0098 109.59 36.9468 109.432C36.9107 109.235 36.9433 109.044 37.0447 108.858C36.9724 108.464 36.9403 108.014 36.9486 107.505C36.9574 107.369 36.9303 107.221 36.8673 107.063C36.7741 106.74 36.6512 106.44 36.4983 106.161C36.3723 105.844 36.2 105.552 35.9814 105.285C35.8915 105.164 35.7882 105.063 35.6715 104.982C35.5817 104.861 35.4515 104.799 35.2811 104.793C35.1315 104.717 34.9685 104.66 34.7921 104.622C34.6156 104.583 34.4556 104.543 34.3121 104.499C34.1 104.636 33.9148 104.734 33.7564 104.795C33.6846 104.773 33.5964 104.754 33.4918 104.737C33.3871 104.721 33.2989 104.702 33.2271 104.68C33.2003 104.718 33.1539 104.743 33.0882 104.754C33.0553 104.76 33.0254 104.781 32.9986 104.82C32.8555 105.148 32.6541 105.435 32.3944 105.681C32.2689 105.736 32.1525 105.84 32.045 105.993C31.9316 106.113 31.8182 106.233 31.7047 106.354C31.6242 106.468 31.5047 106.556 31.3463 106.616C31.2209 106.671 31.0819 106.745 30.9296 106.838C30.9148 106.942 30.9 107.046 30.8852 107.149C30.9033 107.248 30.8885 107.352 30.8408 107.461C30.82 107.532 30.7857 107.622 30.738 107.732C30.7232 107.835 30.7054 107.923 30.6846 107.994C30.6045 108.48 30.5842 108.923 30.6236 109.322C30.6088 109.426 30.6105 109.527 30.6285 109.625C30.7304 109.811 30.7441 109.978 30.6696 110.125C30.6219 110.235 30.5772 110.36 30.5356 110.502C30.6051 111.065 30.6747 111.628 30.7442 112.191C30.8466 112.748 30.9326 113.308 31.0022 113.871C31.0383 114.068 31.052 114.234 31.0432 114.371C31.0136 114.579 30.987 114.803 30.9634 115.043C30.9667 115.245 30.9566 115.467 30.933 115.707L29.8612 115.684C29.6968 115.711 29.516 115.741 29.3187 115.774C29.1214 115.807 28.9211 115.824 28.7178 115.824L27.7315 115.989C27.5014 116.027 27.2712 116.065 27.0411 116.104C26.8109 116.142 26.5778 116.164 26.3416 116.17C25.9799 116.23 25.6928 116.143 25.4802 115.908C25.2764 115.537 25.089 115.163 24.9181 114.786C24.7411 114.376 24.6135 113.958 24.5352 113.532C24.5111 113.401 24.487 113.27 24.4629 113.138C24.4717 113.002 24.4999 112.879 24.5476 112.769C24.5651 112.496 24.5558 112.261 24.5197 112.065C24.5164 111.862 24.4937 111.646 24.4515 111.417C24.3343 110.964 24.2469 110.488 24.1894 109.991C24.1648 109.488 24.0939 109.01 23.9767 108.557C23.9197 108.431 23.8822 108.319 23.8641 108.221C23.846 108.122 23.828 108.024 23.8099 107.925C23.7469 107.767 23.6704 107.628 23.5806 107.508C23.4907 107.387 23.4502 107.259 23.459 107.122C23.4289 106.958 23.3987 106.795 23.3686 106.631C23.3714 106.461 23.3577 106.295 23.3275 106.131C23.2048 106.016 23.0851 105.918 22.9684 105.836C22.8846 105.748 22.7648 105.65 22.6092 105.541C22.5106 105.557 22.3955 105.577 22.264 105.599C22.1593 105.582 22.0382 105.569 21.9007 105.558C21.7571 105.514 21.5777 105.46 21.3624 105.394C21.1799 105.324 21.0004 105.269 20.824 105.231C20.6804 105.187 20.5204 105.146 20.344 105.108C20.2004 105.065 20.0763 105.035 19.9717 105.018C19.7267 105.161 19.4713 105.339 19.2056 105.552C19.113 105.601 19.0039 105.653 18.8784 105.708C18.7798 105.724 18.6677 105.76 18.5422 105.815C18.408 106.006 18.2573 106.2 18.0901 106.397C17.9559 106.588 17.8082 106.799 17.6471 107.029C17.6054 107.171 17.5667 107.329 17.5311 107.504C17.4895 107.646 17.4508 107.805 17.4152 107.98C17.3023 108.472 17.2252 108.974 17.1841 109.488C17.1698 109.964 17.2139 110.48 17.3163 111.037L17.6145 112.66C17.7169 113.217 17.7865 113.78 17.8232 114.349C17.8538 114.884 17.871 115.439 17.8748 116.013C17.8841 116.248 17.8575 116.472 17.795 116.685C17.7654 116.893 17.7418 117.133 17.7243 117.406C17.6021 117.663 17.4604 117.907 17.2993 118.136C17.1321 118.333 16.9231 118.486 16.6721 118.596C16.2058 118.64 15.8934 118.692 15.7351 118.752C15.6036 118.774 15.3227 118.906 14.8925 119.146C14.7671 119.201 14.6416 119.256 14.5161 119.311C14.4235 119.36 14.298 119.415 14.1396 119.475C13.9813 119.535 13.8333 119.56 13.6958 119.549C13.5582 119.538 13.316 119.511 12.9692 119.468C12.8015 119.293 12.598 119.107 12.3585 118.911C12.152 118.709 11.9454 118.506 11.7388 118.304C11.7536 118.201 11.752 118.1 11.7339 118.001C11.7487 117.897 11.7665 117.81 11.7874 117.739C11.7748 117.302 11.6995 116.892 11.5614 116.509C11.3905 116.132 11.236 115.753 11.098 115.37C10.9599 114.988 10.8114 114.641 10.6526 114.33C10.6044 114.067 10.6145 113.846 10.683 113.666C10.7844 113.48 10.8275 113.253 10.8121 112.985C10.8357 112.745 10.8204 112.477 10.7662 112.182C10.7388 111.849 10.7144 111.532 10.6931 111.231C10.6328 110.903 10.5756 110.592 10.5214 110.297C10.4611 109.969 10.4398 109.668 10.4574 109.395C10.4152 109.166 10.3716 109.021 10.3267 108.961C10.1076 108.321 10.023 107.677 10.0729 107.026C10.1085 106.851 10.1173 106.715 10.0992 106.616C10.108 106.48 10.1228 106.376 10.1436 106.305C10.2061 106.092 10.3135 105.939 10.4659 105.846C10.6182 105.753 10.7481 105.63 10.8555 105.476C10.9657 105.154 10.9443 104.853 10.7915 104.575C10.6715 104.291 10.5649 103.987 10.4718 103.665C10.5074 103.49 10.5431 103.315 10.5787 103.14C10.6083 102.933 10.6215 102.728 10.6182 102.526C10.833 102.219 11.012 101.902 11.155 101.574C11.3309 101.241 11.4934 100.926 11.6425 100.631C11.6962 100.555 11.708 100.434 11.6779 100.271C11.6477 100.107 11.6924 99.9809 11.8119 99.8934C11.8716 99.8496 11.9344 99.8222 12.0001 99.8112C12.0927 99.762 12.1524 99.7182 12.1793 99.6799C12.7081 99.4227 13.2369 99.1654 13.7657 98.9082C14.2945 98.6509 14.8008 98.3636 15.2847 98.0462C15.8283 97.6851 16.396 97.4552 16.9878 97.3563C17.0536 97.3454 17.1194 97.3344 17.1851 97.3234C17.2448 97.2796 17.324 97.2495 17.4227 97.233C17.8199 96.9977 18.2293 96.828 18.6507 96.7239C19.1049 96.6142 19.5622 96.5209 20.0225 96.4441L20.6143 96.3452C20.7847 96.3506 20.9582 96.3723 21.1346 96.4104C21.3379 96.4103 21.5338 96.462 21.7223 96.5657C22.0094 96.6529 22.2801 96.7429 22.5343 96.8356C22.8154 96.89 23.1069 96.9089 23.4089 96.8923C23.5464 96.9031 23.6571 96.9522 23.7409 97.0396C23.8516 97.0887 23.9623 97.1378 24.073 97.1869C24.2615 97.2905 24.4201 97.4161 24.5488 97.5636C24.7105 97.7055 24.8721 97.8475 25.0337 97.9894C25.1236 98.1096 25.2 98.2489 25.263 98.4073C25.3529 98.5275 25.4293 98.6668 25.4923 98.8252C25.6479 98.9344 25.8035 99.0435 25.9592 99.1527C26.1148 99.2619 26.3046 99.2809 26.5288 99.2097C26.663 99.0183 26.8003 98.8433 26.9406 98.6847C27.0749 98.4933 27.1927 98.3047 27.2941 98.1188C27.3987 98.1351 27.5497 98.1268 27.747 98.0939L28.8263 97.052C28.8619 96.8771 28.9035 96.735 28.9512 96.6256C28.9989 96.5163 29.0271 96.3933 29.0359 96.2567C29.1943 96.1964 29.3557 96.1526 29.52 96.1251C29.6784 96.0649 29.8368 96.0047 29.9951 95.9444C30.2012 95.7749 30.3968 95.6408 30.582 95.5423C30.7612 95.411 30.9374 95.2633 31.1106 95.0992C31.275 95.0718 31.4424 95.0607 31.6128 95.0661C31.8101 95.0331 31.9909 95.0029 32.1553 94.9755C32.2928 94.9863 32.4273 94.9807 32.5589 94.9588C32.7172 94.8985 32.8682 94.8902 33.0117 94.9338C33.4633 94.9936 33.9057 95.0042 34.3392 94.9656C34.7666 94.8942 35.2 94.8556 35.6395 94.8498C35.7173 94.9044 35.8548 94.9152 36.0521 94.8822L37.3269 95.7338C37.3329 95.7665 37.3553 95.7966 37.3943 95.8239C37.4332 95.8512 37.4556 95.8812 37.4616 95.914C37.9142 96.717 38.5188 97.2411 39.2755 97.4865C39.3205 97.5465 39.355 97.6421 39.3791 97.7733C39.43 97.8661 39.478 97.9426 39.5229 98.0027C39.7563 98.1664 39.9881 98.2291 40.2182 98.1907C40.6248 98.1904 40.8388 98.3405 40.8601 98.641C40.9324 99.0344 41.054 99.4196 41.225 99.7966C41.4288 100.168 41.6296 100.523 41.8274 100.862L42.3985 102.033C42.4407 102.263 42.4889 102.525 42.5431 102.82C42.6302 103.11 42.6979 103.386 42.7461 103.648C42.7702 103.779 42.7943 103.91 42.8184 104.041C42.8693 104.134 42.9233 104.244 42.9803 104.369C43.1572 104.779 43.2416 105.238 43.2333 105.746Z" fill="#FFC704"/>
<path d="M49.8435 86.3906C49.9935 86.5977 50.082 86.8346 50.1089 87.1013C50.1284 87.3355 50.1316 87.5732 50.1184 87.8142C50.1304 88.0159 50.1098 88.2245 50.0566 88.4398C49.9959 88.6226 49.9516 88.8021 49.9235 88.9781C49.8377 89.2003 49.7318 89.4095 49.6058 89.606C49.5125 89.7956 49.4192 89.9853 49.3259 90.1749C49.2355 90.2278 49.1688 90.3097 49.1258 90.4208C49.0755 90.4994 49.0088 90.5813 48.9258 90.6667C48.7345 90.8767 48.4128 91.1139 47.9605 91.3783C47.5008 91.6102 47.1241 91.7567 46.8304 91.8179C46.6672 91.8519 46.5293 91.8466 46.4165 91.802C46.2207 91.8427 46.0249 91.8835 45.8291 91.9243C45.6258 91.9326 45.4426 91.9537 45.2794 91.9877C45.1667 91.9431 45.0375 91.9019 44.8921 91.8641C44.7793 91.8195 44.6829 91.7715 44.6027 91.7201C44.4246 91.6891 44.2377 91.694 44.0419 91.7347C43.8787 91.7687 43.7156 91.8027 43.5524 91.8367C43.3995 91.7664 43.2178 91.7191 43.0071 91.6949C42.8216 91.6314 42.6398 91.5841 42.4617 91.5531L41.967 90.737C41.9401 90.4703 41.9094 90.1873 41.8751 89.8881C41.8332 89.5564 41.7262 89.2383 41.5538 88.9338C41.441 88.8892 41.4224 88.8079 41.498 88.6901C41.5438 88.4423 41.4916 88.2148 41.3416 88.0078C41.1916 87.8007 41.1395 87.5733 41.1853 87.3255C41.203 87.2537 41.197 87.1528 41.1672 87.0228C41.0247 86.8483 40.9837 86.6696 41.0444 86.4867C41.0976 86.2714 41.142 86.092 41.1775 85.9484C41.1225 85.8577 41.0838 85.7636 41.0615 85.6662C41.0317 85.5362 41.0094 85.4387 40.9945 85.3737C41.0197 85.3345 41.0286 85.2986 41.0211 85.2661C41.0388 85.1943 41.0766 85.1354 41.1345 85.0893C41.3806 84.97 41.5667 84.8121 41.6926 84.6156C41.8438 84.3799 42.0224 84.1895 42.2285 84.0445C42.4122 83.802 42.6198 83.5886 42.851 83.4042C43.115 83.2131 43.3626 83.0254 43.5939 82.8411C43.8549 82.7867 44.0834 82.7391 44.2792 82.6984C44.475 82.6576 44.6782 82.6493 44.8889 82.6735C44.9942 82.6856 45.1122 82.6781 45.2427 82.6509C45.3732 82.6237 45.5038 82.5965 45.6343 82.5694C46.0763 82.4093 46.4762 82.5132 46.8341 82.8812C46.9365 83.0301 47.0731 83.1038 47.2437 83.1023C47.4143 83.1008 47.5723 83.119 47.7178 83.1568C48.1111 83.3812 48.4088 83.7107 48.611 84.1452C48.7209 84.3266 48.8308 84.5079 48.9408 84.6893C49.0834 84.8639 49.1933 85.0452 49.2706 85.2334C49.3805 85.4147 49.4779 85.6157 49.5626 85.8364C49.6726 86.0177 49.7662 86.2025 49.8435 86.3906ZM52.1184 97.6613C52.0978 97.8698 52.1172 98.104 52.1768 98.364C52.2289 98.5914 52.2848 98.8351 52.3443 99.095C52.4291 99.3157 52.4849 99.5594 52.5118 99.8261C52.5313 100.06 52.5671 100.291 52.6192 100.519L52.3883 101.077C52.5886 101.206 52.7275 101.364 52.8048 101.552C52.8821 101.74 52.9468 101.948 52.9989 102.176C53.051 102.403 53.1069 102.647 53.1664 102.907C53.2186 103.134 53.2581 103.381 53.285 103.648C53.3045 103.882 53.2951 104.139 53.2567 104.42C53.2184 104.7 53.2001 104.993 53.2018 105.299C53.2763 105.624 53.3493 106.017 53.4209 106.479C53.5177 106.902 53.6308 107.321 53.7602 107.736C53.9343 108.347 54.0468 108.987 54.0978 109.657C54.1414 110.295 54.0796 110.921 53.9125 111.534C53.972 111.794 54.0642 112.047 54.1891 112.293C54.3064 112.507 54.4276 112.737 54.5524 112.984C54.5598 113.016 54.551 113.052 54.5258 113.091C54.508 113.163 54.5066 113.232 54.5215 113.297C54.4104 113.558 54.2593 113.794 54.0681 114.004C54.0355 114.011 54.0066 114.034 53.9814 114.073L53.7856 114.114C53.4266 114.188 53.055 114.283 52.6709 114.397C52.3268 114.537 51.9152 114.605 51.436 114.603C51.2905 114.565 51.1251 114.514 50.9396 114.451C50.7867 114.381 50.6212 114.33 50.4432 114.299C50.3127 114.326 50.1458 114.344 49.9425 114.352C49.7794 114.386 49.6125 114.404 49.4418 114.405C49.1138 114.167 48.782 113.913 48.4465 113.642C48.3337 113.598 48.2083 113.573 48.0703 113.568C47.9323 113.562 47.7906 113.541 47.6452 113.503C47.3795 113.388 47.2384 113.145 47.2218 112.774C47.2051 112.403 47.216 112.077 47.2543 111.797C47.2555 111.354 47.1461 110.952 46.9262 110.589L46.574 109.947C46.5145 109.687 46.4423 109.447 46.3576 109.226C46.2728 109.006 46.2207 108.778 46.2012 108.544C46.1594 108.212 46.0887 107.904 45.989 107.618C45.922 107.326 45.8513 107.017 45.7769 106.692C45.7053 106.23 45.6211 105.788 45.5243 105.366C45.4201 104.911 45.3195 104.473 45.2228 104.05C45.1855 103.888 45.1795 103.787 45.2047 103.748C45.3083 103.454 45.3341 103.193 45.2819 102.966C45.2224 102.706 45.1628 102.446 45.1033 102.186C45.0111 101.933 44.9515 101.673 44.9246 101.406C44.9228 101.1 44.8633 100.84 44.7459 100.626C44.6789 100.334 44.6156 100.058 44.556 99.7976C44.489 99.5052 44.4383 99.2094 44.404 98.9102C44.3994 98.7409 44.3785 98.5751 44.3412 98.4126C44.3292 98.2109 44.2645 98.0031 44.1471 97.7892C44.411 97.5981 44.6334 97.4497 44.8144 97.3439C45.0279 97.2314 45.2326 97.1547 45.4284 97.1139C45.5589 97.0868 45.6894 97.0596 45.82 97.0324C45.9831 96.9984 46.1263 96.9516 46.2494 96.8919C46.5608 96.759 46.8233 96.6363 47.0368 96.5237C47.2075 96.5222 47.3529 96.56 47.4731 96.6371C47.6185 96.6749 47.764 96.7127 47.9094 96.7505C48.1378 96.7029 48.3551 96.6066 48.5612 96.4616C48.7822 96.3815 48.9817 96.357 49.1597 96.388C49.3704 96.4122 49.5545 96.5441 49.712 96.7837C49.7521 96.8094 49.7758 96.8385 49.7833 96.8709C49.8233 96.8966 49.8634 96.9223 49.9035 96.948L50.2908 97.0716C50.5267 97.0566 50.715 96.9833 50.8559 96.8518C50.9893 96.6879 51.1338 96.5727 51.2895 96.5062C51.4853 96.4655 51.6182 96.5229 51.688 96.6786C51.838 96.8856 51.9815 97.2132 52.1184 97.6613Z" fill="#FFC704"/>
<path d="M73.6751 86.9545C73.8778 87.4539 73.8959 87.8439 73.7295 88.1244C73.6192 88.357 73.5619 88.5939 73.5574 88.835C73.5853 89.0683 73.6176 89.3177 73.6541 89.5832C73.6152 89.6955 73.5762 89.8079 73.5373 89.9202C73.5308 90.0247 73.508 90.1331 73.4691 90.2455C73.374 90.4058 73.2832 90.5822 73.1968 90.7747C73.1427 90.9593 73.0886 91.144 73.0345 91.3286C73.0042 91.4732 72.9944 91.6299 73.0051 91.7988C73.0158 91.9676 73.0103 92.1404 72.9886 92.3172C72.9648 92.3573 72.9453 92.4135 72.9302 92.4857C72.9388 92.5179 72.9312 92.5541 72.9075 92.5941C72.8837 92.6342 72.8394 92.6621 72.7746 92.6779C72.7422 92.6858 72.7142 92.7097 72.6904 92.7498L72.4475 92.8089C71.6573 92.6924 70.9567 92.8456 70.3454 93.2686C70.2245 93.3323 70.1154 93.376 70.0183 93.3996C69.9211 93.4232 69.8077 93.4508 69.6782 93.4823C69.5896 93.5381 69.4968 93.5779 69.3996 93.6015C69.3348 93.6172 69.2743 93.6491 69.2182 93.697C68.8726 93.9526 68.5885 94.2446 68.3659 94.5731C68.1434 94.9015 67.9413 95.2422 67.7597 95.595C67.7336 96.0129 67.6955 96.4509 67.6456 96.9088C67.6194 97.3268 67.671 97.7772 67.8002 98.2602C67.8088 98.2924 67.8099 98.3608 67.8033 98.4652C67.7882 98.5375 67.773 98.6098 67.7579 98.6821C67.7599 98.8187 67.7415 98.9433 67.7026 99.0556C67.6874 99.1279 67.6647 99.2363 67.6344 99.3809C67.6213 99.5898 67.592 99.8027 67.5466 100.02C67.5011 100.236 67.4718 100.449 67.4587 100.658C67.5838 100.868 67.6237 101.081 67.5782 101.298C67.5651 101.507 67.5844 101.708 67.6361 101.901C67.7784 102.175 67.8517 102.449 67.8558 102.722C67.8838 102.956 67.8998 103.209 67.904 103.482C67.8843 103.796 67.9176 104.113 68.0038 104.435C68.1137 104.717 68.2075 105.003 68.285 105.293C68.3474 105.655 68.4303 106.029 68.5337 106.416C68.6695 106.794 68.7848 107.161 68.8796 107.515C68.9399 107.74 68.9883 107.986 69.0249 108.251C69.0614 108.517 69.1141 108.778 69.1831 109.036C69.1376 109.253 69.0911 109.401 69.0436 109.481C68.9116 109.891 68.7009 110.199 68.4115 110.407C68.1307 110.646 67.7916 110.797 67.3943 110.86C67.1266 110.891 66.8427 110.925 66.5426 110.964C66.2748 110.995 66.0071 111.026 65.7394 111.056C65.6012 111.056 65.4263 111.047 65.2147 111.03C65.0118 111.045 64.8207 111.04 64.6415 111.015C64.5206 111.078 64.4115 111.122 64.3144 111.146C64.2582 111.194 64.1859 111.246 64.0973 111.301C63.6418 111.275 63.1885 111.128 62.7374 110.86C62.7095 110.627 62.6654 110.398 62.605 110.172C62.5447 109.947 62.5006 109.718 62.4727 109.484C62.4144 109.396 62.3519 109.291 62.285 109.17C62.242 109.009 62.1708 108.872 62.0715 108.759C61.9875 108.573 61.8872 108.392 61.7707 108.215C61.6542 108.037 61.582 107.832 61.5541 107.599C61.3924 107.123 61.1445 106.584 60.8102 105.979C60.8578 105.899 60.8848 105.806 60.8913 105.702C60.9216 105.557 60.9401 105.433 60.9466 105.328C60.9532 105.224 60.9478 105.139 60.9306 105.075C60.9371 104.971 60.9275 104.87 60.9016 104.773C60.8844 104.709 60.8876 104.657 60.9114 104.617C60.9266 104.544 60.8931 104.484 60.8111 104.435C60.7529 104.347 60.6947 104.258 60.6364 104.169C60.6019 104.04 60.5556 103.932 60.4974 103.843C60.3788 103.529 60.2926 103.207 60.2389 102.877C60.2368 102.74 60.2228 102.624 60.197 102.527C60.1949 102.39 60.1928 102.254 60.1907 102.117C60.2124 101.94 60.1812 101.759 60.0971 101.574C60.0454 101.381 59.9214 101.239 59.725 101.15C59.684 101.126 59.643 101.101 59.602 101.077C59.5847 101.012 59.5394 100.972 59.466 100.956C59.3905 100.802 59.3108 100.633 59.2267 100.448C59.175 100.255 59.0952 100.086 58.9873 99.9403C58.8946 99.7227 58.79 99.5252 58.6736 99.3478C58.5895 99.1625 58.5173 98.9571 58.4569 98.7317C58.4183 98.3295 58.3354 97.9553 58.2083 97.609C58.0725 97.2304 58.0015 96.8362 57.9952 96.4261C57.978 96.3617 57.9403 96.2852 57.882 96.1964C57.8562 96.0998 57.8346 96.0193 57.8174 95.9549C57.6902 95.6086 57.563 95.2623 57.4359 94.916C57.3411 94.5618 57.3111 94.1918 57.3459 93.8061C57.3762 93.6615 57.3698 93.5088 57.3267 93.3478C57.2836 93.1868 57.2405 93.0258 57.1975 92.8647C57.1199 92.5749 57.0467 92.3012 56.9777 92.0436C56.9326 91.746 56.9403 91.4526 57.0009 91.1635C56.9751 91.0669 56.8834 90.9177 56.7259 90.7159C56.7476 90.5391 56.7531 90.3663 56.7424 90.1974C56.7555 89.9885 56.7567 89.7996 56.746 89.6307C56.7677 89.4539 56.7775 89.2972 56.7754 89.1606C56.7647 88.9917 56.7584 88.8389 56.7563 88.7022C56.8989 88.4618 57.0555 88.3379 57.2261 88.3308C57.5758 88.3486 57.904 88.2859 58.2107 88.1428C58.5411 87.9595 58.8726 87.8446 59.2051 87.7981C59.3023 87.7744 59.3951 87.7347 59.4837 87.6789C59.5636 87.5909 59.6479 87.5189 59.7364 87.4631C60.244 87.1682 60.7017 87.074 61.1097 87.1806C61.4398 87.5119 61.6469 87.7702 61.731 87.9555C61.8151 88.1408 61.9724 88.5999 62.203 89.3326C62.395 89.6632 62.6636 89.9579 63.0089 90.2169C63.0909 90.2656 63.201 90.2903 63.3391 90.291C63.5011 90.2516 63.6058 90.1918 63.6534 90.1117C63.7571 89.9836 63.8489 89.8755 63.9288 89.7875C64.0002 89.6672 64.0672 89.5309 64.1299 89.3785C64.2811 89.1702 64.4162 88.9659 64.5351 88.7655C64.6777 88.525 64.7966 88.3247 64.8916 88.1644C65.2048 87.9167 65.5019 87.673 65.7827 87.4332C66.0959 87.1856 66.4415 86.9301 66.8194 86.6667L67.9369 86.395L68.0211 86.323C68.0535 86.3152 68.0697 86.3112 68.0697 86.3112C68.0935 86.2712 68.1259 86.2633 68.1669 86.2876L68.2997 86.2039C68.7401 86.3025 69.0931 86.2681 69.3587 86.1007C69.8339 85.8136 70.3532 85.756 70.9165 85.9276C71.2425 85.9855 71.5523 86.0474 71.8459 86.1132C72.1395 86.179 72.4535 86.2569 72.7881 86.347C72.9198 86.4522 73.0676 86.5535 73.2316 86.6508C73.3956 86.748 73.5435 86.8493 73.6751 86.9545Z" fill="#FFC704"/>
<path d="M103.722 96.5406C103.894 96.7307 103.997 96.9252 104.031 97.1241C104.066 97.3231 104.068 97.532 104.038 97.7511C104.018 97.7926 103.971 97.86 103.897 97.9532C103.813 98.0149 103.75 98.0873 103.708 98.1703C103.592 98.2421 103.486 98.2931 103.391 98.3233C103.296 98.3536 103.196 98.4203 103.09 98.5235C102.647 98.7691 102.449 99.1115 102.496 99.5509C102.486 99.6239 102.45 99.7227 102.388 99.8474C102.176 99.9494 102.028 100.031 101.944 100.093C101.871 100.186 101.718 100.357 101.487 100.605C101.265 100.675 101.054 100.777 100.853 100.911C100.653 101.044 100.49 101.235 100.365 101.485C100.302 101.505 100.254 101.52 100.222 101.53C100.201 101.572 100.159 101.602 100.096 101.623C99.9906 101.726 99.8366 101.74 99.6338 101.664C99.442 101.62 99.3187 101.519 99.2638 101.362L99.1649 101.079C99.0159 101.056 98.857 101.107 98.6883 101.23C98.5514 101.343 98.4024 101.321 98.2411 101.162L97.9941 100.454C97.8768 100.421 97.765 100.404 97.6587 100.403C97.5732 100.36 97.4773 100.338 97.371 100.337C97.156 100.125 96.9197 99.9032 96.662 99.6703C96.4043 99.4374 96.1576 99.236 95.9219 99.066C95.7618 99.0119 95.6396 99.0157 95.5553 99.0774C95.471 99.1391 95.408 99.2115 95.3664 99.2946C95.3248 99.3777 95.3046 99.4715 95.3058 99.5759C95.296 99.649 95.2702 99.727 95.2287 99.8101C95.1871 99.8932 95.1669 99.987 95.168 100.091C95.1692 100.196 95.149 100.29 95.1074 100.373C94.7602 100.693 94.4075 100.997 94.0494 101.285C93.6802 101.542 93.3215 101.778 92.9731 101.993C92.8056 102.221 92.6326 102.433 92.4541 102.63C92.2756 102.826 92.113 103.018 91.9662 103.204C91.7866 103.296 91.6124 103.403 91.4437 103.527C91.275 103.65 91.1167 103.753 90.9688 103.835C90.7452 103.801 90.5436 103.83 90.3639 103.922C90.227 104.035 90.0425 104.163 89.8102 104.307C89.5023 104.335 89.173 104.352 88.8223 104.358C88.4826 104.396 88.127 104.439 87.7555 104.486C87.6712 104.548 87.5813 104.594 87.486 104.624C87.3907 104.654 87.3167 104.695 87.2642 104.747C87.1151 104.724 86.9819 104.697 86.8647 104.664C86.7791 104.621 86.6674 104.604 86.5293 104.613C86.3484 104.6 86.2055 104.646 86.1003 104.749C85.9952 104.852 85.8742 104.961 85.7372 105.074C85.5564 105.061 85.3652 105.069 85.1635 105.098C84.9729 105.159 84.7768 105.204 84.5751 105.233C84.3614 105.126 84.169 105.029 83.9979 104.944C83.8587 104.848 83.7402 104.711 83.6426 104.532C83.5571 104.489 83.4771 104.462 83.4025 104.451C83.317 104.408 83.2529 104.376 83.2101 104.355C82.9293 103.954 82.6546 103.622 82.3859 103.358C81.6116 102.554 80.9474 101.611 80.3932 100.529C80.3077 100.486 80.2222 100.443 80.1367 100.4C80.0402 100.326 79.9278 100.257 79.7996 100.193C79.669 99.9195 79.5439 99.6621 79.4242 99.4204C79.2936 99.1472 79.1417 98.8633 78.9683 98.5687C78.966 98.3597 78.9374 98.1766 78.8825 98.0192C78.7091 97.7246 78.5467 97.4615 78.3953 97.2299C78.3907 96.8119 78.386 96.3939 78.3813 95.976C78.4085 95.5479 78.3189 95.1394 78.1126 94.7504C78.1322 94.6044 78.1732 94.469 78.2356 94.3444C78.287 94.1883 78.328 94.0529 78.3586 93.9384C78.5348 93.533 78.615 93.1056 78.5994 92.6561C78.5739 92.2797 78.6285 91.9303 78.7631 91.608C78.9294 91.2757 79.1281 90.9854 79.3592 90.7374C79.6538 90.4692 79.9325 90.2061 80.1954 89.948C80.479 89.6483 80.7578 89.3852 81.0316 89.1586C81.0951 89.1384 81.1801 89.129 81.2864 89.1302C81.4135 89.0899 81.5033 89.044 81.5559 88.9924C82.0949 88.7166 82.5764 88.529 83.0004 88.4295C83.2021 88.4005 83.3927 88.3401 83.5724 88.2482C83.7521 88.1563 83.9213 88.0851 84.0802 88.0347L85.0152 87.5286C85.2168 87.4996 85.424 87.4864 85.6366 87.4889C85.8492 87.4914 86.0343 87.4152 86.192 87.2603C86.2556 87.2402 86.3087 87.2408 86.3515 87.2622C86.415 87.2421 86.4627 87.227 86.4945 87.2169C86.6753 87.2295 86.8458 87.2628 87.0058 87.3169C87.1549 87.3396 87.3088 87.3257 87.4677 87.2754C87.8392 87.2275 88.0396 87.094 88.0691 86.875C87.8506 86.35 87.6822 86.0189 87.5637 85.8817C87.4771 85.7344 87.2939 85.5128 87.0142 85.217C86.853 85.0584 86.7236 84.8897 86.6259 84.7109C86.5173 84.5007 86.4142 84.3062 86.3165 84.1274C86.2408 84.0116 86.1706 83.9115 86.1059 83.8272C86.062 83.7013 85.9545 83.5956 85.7835 83.51C85.3265 83.515 84.7851 83.5818 84.1595 83.7103L83.8735 83.8009C83.6314 84.0175 83.3515 84.1761 83.0338 84.2769C82.716 84.3776 82.3934 84.5149 82.0658 84.6886C81.8544 84.7906 81.638 84.9291 81.4168 85.1041C81.2273 85.269 81.0164 85.4233 80.7842 85.5668C80.5739 85.7733 80.2978 85.7909 79.9557 85.6198C79.7616 85.3667 79.6151 85.0986 79.5163 84.8153C79.4383 84.4905 79.3602 84.1657 79.2822 83.8409C79.1418 83.6408 78.9745 83.4142 78.7804 83.1611C78.5752 82.8766 78.4013 82.5298 78.2585 82.1206L78.1909 81.7751C78.1372 81.7222 78.0517 81.6794 77.9344 81.6467C77.8489 81.6039 77.7688 81.5768 77.6943 81.5655C77.5661 81.5013 77.5172 81.4119 77.5478 81.2973C77.5149 81.2029 77.5461 81.1406 77.6414 81.1104C77.8736 80.9668 78.0955 80.8441 78.3069 80.7421C78.5184 80.6401 78.7298 80.5381 78.9413 80.4361L79.3155 79.6883C79.3681 79.6367 79.4421 79.5957 79.5374 79.5655C80.3121 79.4597 80.8529 79.3407 81.1596 79.2085C81.4982 79.0662 81.9785 78.7741 82.6007 78.3321C82.9612 78.2528 83.3113 78.1942 83.651 78.1564C84.0225 78.1086 84.3775 78.0135 84.7161 77.8712C84.8443 77.9354 84.9726 77.9996 85.1009 78.0638C85.2499 78.0865 85.4045 78.1248 85.5645 78.179C85.7014 78.0657 85.8438 77.9681 85.9917 77.8862C86.1286 77.7729 86.2551 77.6804 86.3713 77.6086C86.6058 77.6741 86.8563 77.7345 87.1226 77.7898C87.2925 77.7709 87.4086 77.6992 87.471 77.5745C87.5651 77.4398 87.6758 77.3523 87.8029 77.312C88.0998 77.2528 88.3717 77.3239 88.6184 77.5254C88.8859 77.6852 89.1583 77.8086 89.4356 77.8954C89.6702 77.9609 89.8999 78.0628 90.1246 78.2013C90.3812 78.3297 90.6322 78.4423 90.8777 78.5393C90.9742 78.6135 91.0707 78.6878 91.1672 78.7621C91.2637 78.8364 91.3443 78.9157 91.409 79C91.6118 79.0755 91.7932 79.1403 91.9533 79.1945C92.1023 79.2171 92.2465 79.2763 92.3857 79.372C92.5885 79.4475 92.7803 79.4915 92.9612 79.5041C93.1738 79.5066 93.3552 79.5714 93.5054 79.6986C93.6239 79.8358 93.7478 79.9887 93.8773 80.1574C93.9957 80.2946 94.1563 80.401 94.3591 80.4765C94.5643 80.761 94.7749 81.0613 94.991 81.3773C95.1961 81.6618 95.3273 81.9872 95.3845 82.3535C95.4394 82.5109 95.4729 82.6576 95.4851 82.7935C95.6035 82.9308 95.7116 83.0887 95.8093 83.2675C95.9069 83.4463 96.015 83.6043 96.1334 83.7415L96.2158 83.9775C96.2487 84.0719 96.2713 84.1871 96.2834 84.3231C96.3163 84.4175 96.3597 84.4912 96.4134 84.544C96.5429 84.7127 96.6717 84.8292 96.8 84.8934C96.8659 85.0822 96.8468 85.2805 96.7428 85.4882C96.6903 85.5398 96.6218 85.5965 96.5375 85.6582C96.4531 85.7199 96.3902 85.7923 96.3486 85.8754C96.0441 86.2166 96.0953 86.5149 96.5021 86.7705C96.5448 86.7919 96.6144 86.8397 96.7109 86.914C96.8282 86.9467 96.9192 87.0052 96.9839 87.0896C97.0596 87.2054 97.1249 87.342 97.1798 87.4994C97.2237 87.6253 97.289 87.7618 97.3757 87.9091C97.4572 88.5474 97.4166 89.1895 97.2537 89.8353C97.5028 90.2457 97.794 90.6253 98.1274 90.974C98.4926 91.3126 98.8314 91.6771 99.144 92.0673C99.3359 92.1114 99.4959 92.1655 99.6242 92.2297C99.7524 92.2939 99.8911 92.3373 100.04 92.3599C100.105 92.4443 100.143 92.5022 100.154 92.5337C100.196 92.5551 100.229 92.5972 100.251 92.6602C100.361 92.9749 100.502 93.2796 100.676 93.5742C100.881 93.8587 101.096 94.1224 101.322 94.3654C101.548 94.6083 101.768 94.8355 101.983 95.047C102.198 95.2585 102.445 95.4599 102.724 95.6513C102.926 95.7268 103.114 95.8596 103.286 96.0497C103.458 96.2398 103.604 96.4034 103.722 96.5406ZM91.0605 93.4767C90.7051 93.065 90.357 92.8258 90.0161 92.7591C89.6117 92.7126 89.3179 92.5785 89.1347 92.357C89.059 92.2412 88.968 92.1826 88.8617 92.1814C88.7554 92.1801 88.6491 92.1789 88.5428 92.1776C88.4157 92.2179 88.2623 92.284 88.0827 92.3759C87.9238 92.4263 87.7704 92.4924 87.6225 92.5742C87.4319 92.6347 87.2302 92.6637 87.0176 92.6612C86.8368 92.6486 86.6615 92.6517 86.4916 92.6706C86.2056 92.7613 85.963 92.9256 85.7637 93.1636C85.6695 93.2983 85.5913 93.428 85.5289 93.5526C85.4555 93.6458 85.3931 93.7704 85.3417 93.9265L85.1174 95.256C85.2469 95.4247 85.3867 95.5726 85.5369 95.6997C85.6762 95.7954 85.742 95.9842 85.7346 96.2662C85.8969 96.5294 86.0648 96.8082 86.2382 97.1028C86.4323 97.3558 86.6582 97.5988 86.9159 97.8317C87.0014 97.8745 87.0601 97.8908 87.0919 97.8807C87.4633 97.8329 87.8238 97.7535 88.1734 97.6427C88.5229 97.5319 88.851 97.4104 89.1578 97.2782C89.2849 97.2379 89.3747 97.1919 89.4273 97.1403C89.7109 96.8407 90.0795 96.5316 90.533 96.213C90.7127 96.1211 90.838 95.9241 90.909 95.6219C90.9373 95.2984 90.9601 94.9591 90.9774 94.6041C90.9837 94.2176 91.0114 93.8418 91.0605 93.4767ZM83.6573 104.422C83.6573 104.422 83.6414 104.428 83.6096 104.438C83.6096 104.438 83.6206 104.469 83.6426 104.532C83.6842 104.449 83.6891 104.412 83.6573 104.422Z" fill="#FFC704"/>
<path d="M105.877 68.9982C106.068 69.1702 106.205 69.3834 106.288 69.6378C106.356 69.8621 106.409 70.093 106.447 70.3303C106.501 70.5245 106.525 70.7317 106.518 70.9519C106.497 71.142 106.491 71.3256 106.501 71.5026C106.463 71.736 106.403 71.9608 106.321 72.1771C106.269 72.3803 106.217 72.5835 106.165 72.7867C106.087 72.8561 106.039 72.9491 106.02 73.0658C105.987 73.1523 105.939 73.2454 105.875 73.345C105.731 73.5874 105.465 73.8822 105.076 74.2292C104.673 74.5462 104.333 74.7635 104.057 74.8812C103.904 74.9466 103.767 74.9688 103.647 74.9477C103.463 75.0262 103.279 75.1046 103.095 75.1831C102.897 75.2314 102.721 75.2883 102.568 75.3537C102.448 75.3326 102.312 75.318 102.161 75.31C102.041 75.2889 101.936 75.2613 101.846 75.2271C101.664 75.2322 101.482 75.2739 101.298 75.3524C101.144 75.4178 100.991 75.4832 100.838 75.5486C100.673 75.5104 100.484 75.5004 100.272 75.5186C100.076 75.4935 99.887 75.4834 99.7054 75.4885L99.047 74.7915C98.9643 74.5371 98.8745 74.2675 98.7777 73.9829C98.6667 73.6681 98.4944 73.3794 98.2607 73.1169C98.1404 73.0958 98.105 73.0204 98.1545 72.8906C98.1473 72.6402 98.0481 72.429 97.857 72.257C97.6658 72.085 97.5666 71.8738 97.5595 71.6234C97.5618 71.55 97.5346 71.4529 97.4779 71.3322C97.301 71.1904 97.223 71.0245 97.2442 70.8343C97.2512 70.6141 97.257 70.4305 97.2616 70.2836C97.1885 70.2062 97.1306 70.1222 97.0881 70.0317C97.0315 69.911 96.989 69.8205 96.9606 69.7601C96.9771 69.7169 96.9783 69.6802 96.9641 69.65C96.9665 69.5766 96.9912 69.5117 97.0383 69.4554C97.2553 69.2904 97.405 69.0997 97.4874 68.8835C97.5864 68.6239 97.7219 68.4031 97.8941 68.221C98.0237 67.9484 98.1828 67.6995 98.3714 67.4741C98.5906 67.2357 98.7946 67.0038 98.9832 66.7785C99.2285 66.6738 99.4431 66.5822 99.627 66.5038C99.811 66.4253 100.009 66.377 100.221 66.3588C100.328 66.3497 100.442 66.319 100.565 66.2667C100.687 66.2144 100.81 66.1621 100.932 66.1097C101.333 65.8663 101.749 65.8883 102.178 66.1759C102.31 66.3006 102.46 66.3453 102.627 66.3101C102.795 66.2749 102.954 66.2613 103.105 66.2693C103.539 66.41 103.901 66.672 104.192 67.0552C104.338 67.2101 104.484 67.3649 104.631 67.5198C104.808 67.6616 104.954 67.8165 105.07 67.9844C105.216 68.1393 105.354 68.3158 105.484 68.5139C105.63 68.6688 105.761 68.8302 105.877 68.9982ZM110.488 79.5256C110.512 79.7328 110.581 79.9571 110.694 80.1985C110.793 80.4097 110.899 80.636 111.013 80.8774C111.143 81.0755 111.249 81.3018 111.331 81.5563C111.4 81.7806 111.484 81.9983 111.583 82.2095L111.474 82.7995C111.698 82.8849 111.868 83.0116 111.983 83.1796C112.099 83.3476 112.206 83.5371 112.305 83.7484C112.405 83.9596 112.511 84.1859 112.624 84.4272C112.723 84.6385 112.814 84.8713 112.897 85.1258C112.966 85.3501 113.01 85.6025 113.032 85.8831C113.053 86.1638 113.097 86.4529 113.163 86.7507C113.305 87.0524 113.459 87.421 113.627 87.8565C113.811 88.2488 114.011 88.6345 114.226 89.0136C114.525 89.5738 114.771 90.1753 114.962 90.818C115.14 91.4305 115.211 92.0521 115.176 92.6828C115.289 92.9242 115.433 93.1525 115.608 93.3677C115.768 93.5528 115.936 93.7529 116.11 93.9681C116.124 93.9983 116.123 94.035 116.107 94.0783C116.104 94.1517 116.117 94.2186 116.146 94.2789C116.092 94.5555 115.993 94.8151 115.849 95.0575C115.818 95.0706 115.795 95.0988 115.778 95.142L115.594 95.2205C115.257 95.3644 114.911 95.5299 114.558 95.7171C114.249 95.9213 113.859 96.0697 113.387 96.1623C113.236 96.1543 113.062 96.1378 112.867 96.1126C112.701 96.0745 112.528 96.0579 112.346 96.0629C112.224 96.1153 112.063 96.1656 111.865 96.2139C111.712 96.2793 111.552 96.3296 111.384 96.3649C111.011 96.198 110.632 96.016 110.245 95.8189C110.124 95.7978 109.996 95.7983 109.859 95.8205C109.722 95.8426 109.578 95.8497 109.427 95.8417C109.142 95.7824 108.952 95.5737 108.857 95.2156C108.763 94.8576 108.705 94.5382 108.684 94.2576C108.591 93.8261 108.399 93.4555 108.106 93.1457L107.625 92.5906C107.511 92.3492 107.39 92.1294 107.26 91.9313C107.13 91.7332 107.031 91.522 106.963 91.2977C106.852 90.9829 106.717 90.6962 106.559 90.4377C106.431 90.1662 106.297 89.8795 106.155 89.5778C105.987 89.1423 105.811 88.7284 105.627 88.3362C105.429 87.9138 105.238 87.5064 105.054 87.1142C104.983 86.9633 104.956 86.8662 104.972 86.823C105.012 86.5162 104.982 86.2572 104.883 86.046C104.77 85.8046 104.657 85.5632 104.543 85.3218C104.399 85.0935 104.286 84.8521 104.203 84.5977C104.137 84.3 104.024 84.0586 103.863 83.8735C103.736 83.602 103.615 83.3455 103.502 83.1041C103.374 82.8326 103.262 82.5545 103.165 82.2698C103.125 82.1059 103.07 81.9485 102.999 81.7976C102.945 81.6035 102.837 81.4139 102.677 81.2289C102.896 80.9904 103.083 80.8018 103.239 80.663C103.425 80.5111 103.61 80.3959 103.794 80.3174C103.917 80.265 104.04 80.2127 104.162 80.1604C104.316 80.095 104.446 80.021 104.555 79.9385C104.833 79.7474 105.065 79.5758 105.252 79.4239C105.419 79.3887 105.57 79.3967 105.705 79.448C105.856 79.456 106.007 79.464 106.158 79.472C106.372 79.3805 106.566 79.2436 106.738 79.0616C106.938 78.9398 107.129 78.8764 107.311 78.8714C107.523 78.8532 107.732 78.9452 107.937 79.1473C107.982 79.1644 108.011 79.1881 108.026 79.2182C108.07 79.2353 108.115 79.2524 108.16 79.2695L108.567 79.3132C108.796 79.2518 108.966 79.1431 109.076 78.9872C109.173 78.8011 109.291 78.6603 109.43 78.5647C109.614 78.4862 109.757 78.5159 109.858 78.6536C110.049 78.8256 110.259 79.1163 110.488 79.5256Z" fill="#FFC704"/>
<path d="M149.101 71.4647C149.095 72.1263 148.903 72.6853 148.525 73.1416C148.282 73.4402 148.072 73.7582 147.894 74.0956C147.717 74.433 147.548 74.7844 147.389 75.1498C147.404 75.2954 147.335 75.4332 147.181 75.563C147.077 75.5861 146.958 75.6176 146.825 75.6576C146.693 75.6977 146.545 75.7462 146.384 75.8032L145.57 76.1107C145.279 76.09 145.016 76.0523 144.781 75.9976C144.529 75.915 144.276 75.8324 144.023 75.7498C143.518 75.5846 143.181 75.494 143.012 75.4782C142.842 75.4624 142.493 75.4756 141.964 75.518C141.621 75.2958 141.291 75.065 140.976 74.8258C140.643 74.5587 140.482 74.4026 140.492 74.3577C140.571 74.2339 140.498 74.1222 140.274 74.0226C140.06 73.8781 139.916 73.8089 139.84 73.8149C139.596 73.8051 139.459 73.8088 139.43 73.8257C139.24 73.8997 139.044 73.9962 138.843 74.1151C138.643 74.234 138.442 74.3529 138.241 74.4718C138.072 74.456 137.912 74.4542 137.761 74.4663C137.609 74.4784 137.444 74.499 137.264 74.528C137.082 74.6749 137.002 74.8576 137.025 75.0761C137.03 75.2667 137.049 75.4488 137.083 75.6224C137.109 75.7231 137.176 75.8573 137.286 76.0248C137.413 76.2203 137.55 76.4297 137.695 76.6531C137.87 76.8595 138.001 77.0914 138.089 77.3488C138.159 77.5783 138.244 77.7992 138.342 78.0117C138.47 78.2072 138.606 78.4166 138.752 78.64C138.796 78.7687 138.849 78.9113 138.911 79.0679C138.974 79.2246 139.022 79.3897 139.055 79.5633C139.068 79.8267 139.119 80.0871 139.207 80.3445C139.324 80.5849 139.365 80.8313 139.331 81.0838C138.752 81.659 138.371 82.0201 138.188 82.1669C138.035 82.2968 137.733 82.4751 137.285 82.702C137.246 82.7639 137.207 82.8258 137.168 82.8877C137.128 82.9496 137.075 83.02 137.007 83.0989C136.752 83.134 136.464 83.1498 136.143 83.146C135.841 83.1702 135.539 83.1944 135.237 83.2186C134.963 83.2258 134.763 83.1317 134.635 82.9362C134.297 82.4785 133.925 82.0602 133.519 81.6814C133.124 81.2576 132.786 80.7999 132.505 80.3081C132.2 80.024 131.93 79.7004 131.693 79.3374C131.485 78.9574 131.234 78.6029 130.94 78.2738C130.839 78.1791 130.761 78.0898 130.706 78.0061C130.633 77.8944 130.56 77.7827 130.488 77.671C130.399 77.4136 130.279 77.1368 130.125 76.8405C130.06 76.8017 129.972 76.7574 129.86 76.7076C129.758 76.6128 129.661 76.5546 129.567 76.5327C129.299 76.3044 129.106 76.0701 128.989 75.8297C128.872 75.5893 128.75 75.3713 128.623 75.1759C128.506 74.9355 128.337 74.7066 128.116 74.4893C128.025 74.3496 127.952 74.2379 127.897 74.1542C127.853 74.0255 127.809 73.8968 127.765 73.7681C127.69 73.3481 127.448 73.0075 127.039 72.7464C126.836 72.557 126.619 72.376 126.387 72.2036C126.156 72.0312 125.924 71.8587 125.692 71.6863C125.62 71.5746 125.538 71.4489 125.447 71.3093C125.356 71.1697 125.279 71.0216 125.217 70.8649C125.016 70.5578 124.825 70.2646 124.643 69.9853C124.472 69.6611 124.281 69.3679 124.07 69.1057C123.961 68.9381 123.906 68.8543 123.906 68.8543C123.836 68.6249 123.737 68.4124 123.61 68.217C123.493 67.9766 123.385 67.7501 123.286 67.5377C123.227 67.2633 123.115 67.0005 122.951 66.7491C122.816 66.4808 122.699 66.2404 122.601 66.028C122.291 65.5533 122.043 65.081 121.856 64.6111C121.84 64.4655 121.805 64.3507 121.751 64.267C121.678 64.1553 121.614 64.0575 121.56 63.9737C121.469 63.8341 121.358 63.7254 121.228 63.6477C121.126 63.553 121.039 63.4498 120.967 63.3381C120.875 63.1985 120.808 63.0643 120.764 62.9356C120.73 62.762 120.677 62.6194 120.604 62.5077L119.676 61.0835C119.522 60.7873 119.355 60.4995 119.173 60.2203C118.991 59.941 118.814 59.6393 118.642 59.3152C118.596 59.3042 118.54 59.2793 118.475 59.2405C118.409 59.2016 118.321 59.1573 118.209 59.1075C118.042 58.9739 118.031 58.8646 118.174 58.7797C118.602 58.2165 118.998 57.634 119.361 57.0319C119.418 56.998 119.461 56.9725 119.49 56.9555C119.5 56.9106 119.52 56.8796 119.548 56.8626C119.77 56.6539 119.986 56.4676 120.198 56.3038C120.419 56.0951 120.585 55.8614 120.695 55.6029C120.698 55.4851 120.799 55.3668 121 55.2479C121.316 55.061 121.552 54.8438 121.708 54.5962C121.873 54.4214 122.045 54.3195 122.225 54.2904C122.386 54.2334 122.557 54.1904 122.737 54.1613L122.955 54.4964C123.046 54.636 123.115 54.7113 123.162 54.7222C123.198 54.7781 123.245 54.789 123.303 54.755C123.951 54.8353 124.476 55.1826 124.876 55.797C124.949 55.9087 125.022 56.0204 125.095 56.1321C125.196 56.2268 125.307 56.3355 125.426 56.4581L125.645 56.7932C125.78 57.0615 125.892 57.3244 125.98 57.5817C126.068 57.8391 126.171 58.088 126.288 58.3284C126.527 58.5737 126.761 58.8414 126.99 59.1316C127.229 59.3769 127.383 59.6731 127.45 60.0203L127.696 60.3973C127.881 60.5588 128.022 60.7458 128.121 60.9582C128.22 61.1707 128.342 61.3886 128.488 61.612L128.788 62.0728C129.056 62.3011 129.252 62.5718 129.377 62.8851C129.53 63.1813 129.66 63.4721 129.767 63.7574C129.886 63.88 129.992 64.0111 130.083 64.1508C130.184 64.2455 130.295 64.3541 130.415 64.4768C130.477 64.6334 130.548 64.804 130.629 64.9885C130.691 65.1451 130.753 65.3017 130.816 65.4583C130.943 65.6538 131.071 65.8493 131.198 66.0448C131.336 66.1953 131.492 66.3738 131.666 66.5802C131.729 66.7368 131.809 66.9214 131.908 67.1338C131.988 67.3184 132.055 67.5114 132.106 67.7129C132.161 67.7967 132.264 67.8326 132.415 67.8204C132.444 67.8035 132.463 67.7725 132.474 67.7276C132.589 67.6596 132.633 67.5753 132.607 67.4745C132.673 67.0873 132.79 66.6886 132.96 66.2783C133.049 66.1096 133.114 65.9354 133.156 65.7558C133.198 65.5761 133.278 65.3934 133.395 65.2077C133.463 65.1288 133.529 64.9547 133.591 64.6852C133.712 64.3817 133.832 64.0783 133.952 63.7748C134.072 63.4714 134.234 63.2013 134.438 62.9647C134.496 62.5046 134.509 62.1289 134.478 61.8375C134.585 61.6967 134.678 61.5645 134.756 61.4407C134.816 61.2889 134.866 61.1821 134.905 61.1202C134.937 60.9855 134.954 60.8592 134.956 60.7415C134.905 60.54 134.853 60.3384 134.801 60.1369C134.749 59.9354 134.711 59.7254 134.688 59.5069C134.78 59.2204 134.857 58.9424 134.92 58.6729C135.011 58.3865 135.094 58.0861 135.167 57.7717C135.321 57.6418 135.497 57.5763 135.695 57.5751C135.875 57.5461 136.069 57.5085 136.277 57.4624C136.856 57.7393 137.449 57.9489 138.059 58.0911C138.697 58.2163 139.326 58.3275 139.946 58.4248C140.107 58.3678 140.313 58.4394 140.563 58.6398C140.813 58.8402 140.949 59.0496 140.973 59.2681C140.905 59.347 140.841 59.4623 140.781 59.614C140.749 59.7488 140.68 59.8865 140.573 60.0273C140.627 60.5372 140.652 61.064 140.649 61.6079C140.675 62.1347 140.709 62.6755 140.753 63.2303C140.776 63.4488 140.799 63.6673 140.822 63.8859C140.827 64.0764 140.794 64.2701 140.724 64.4667C140.645 64.5905 140.619 64.7028 140.645 64.8035C140.671 64.9043 140.692 65.0275 140.707 65.1732C140.774 65.5204 140.8 65.8342 140.784 66.1146C140.768 66.395 140.723 66.6924 140.65 67.0068C140.601 67.1136 140.569 67.2484 140.556 67.411C140.543 67.5737 140.535 67.7139 140.532 67.8317C140.521 67.8766 140.534 67.9269 140.571 67.9828C140.781 68.2451 141.027 68.409 141.309 68.4746C141.572 68.5123 141.791 68.6344 141.965 68.8408C142.145 68.8117 142.319 68.8051 142.488 68.8209C142.686 68.8197 142.861 68.8131 143.012 68.801C143.489 68.9832 143.994 69.1484 144.528 69.2967C145.044 69.417 145.545 69.5458 146.032 69.6831C146.501 69.7925 146.959 69.9468 147.407 70.146C147.837 70.3172 148.241 70.5419 148.621 70.82C148.752 70.8977 148.853 70.9924 148.926 71.1041C149.027 71.1989 149.086 71.319 149.101 71.4647Z" fill="#FFC704"/>
<path d="M145.742 45.6559C145.961 45.7916 146.134 45.9772 146.261 46.2125C146.368 46.4207 146.462 46.6379 146.541 46.8642C146.629 47.0452 146.689 47.2443 146.721 47.4616C146.734 47.6517 146.761 47.8327 146.801 48.0047C146.805 48.2401 146.786 48.4709 146.743 48.6972C146.727 48.9054 146.712 49.1136 146.697 49.3218C146.632 49.4033 146.601 49.5028 146.603 49.6205C146.586 49.711 146.554 49.8106 146.509 49.9193C146.41 50.1818 146.199 50.5167 145.875 50.9241C145.533 51.3044 145.236 51.576 144.984 51.739C144.844 51.8295 144.713 51.8748 144.59 51.8748C144.422 51.9835 144.254 52.0921 144.086 52.2008C143.899 52.2823 143.736 52.3683 143.596 52.4588C143.473 52.4589 143.336 52.4679 143.186 52.4861C143.063 52.4861 142.955 52.4771 142.86 52.459C142.681 52.4952 142.508 52.5677 142.34 52.6763C142.2 52.7669 142.06 52.8574 141.92 52.9479C141.75 52.9389 141.562 52.9616 141.356 53.0159C141.158 53.025 140.969 53.0477 140.791 53.0839L140.017 52.5138C139.89 52.2784 139.754 52.0295 139.608 51.7671C139.442 51.4774 139.221 51.224 138.944 51.0068C138.821 51.0068 138.773 50.9389 138.799 50.8031C138.747 50.5588 138.612 50.3687 138.393 50.2329C138.173 50.0972 138.038 49.9071 137.987 49.6627C137.976 49.5903 137.932 49.4998 137.855 49.3912C137.655 49.2826 137.548 49.1333 137.536 48.9432C137.504 48.7259 137.477 48.5449 137.456 48.4001C137.37 48.3367 137.298 48.2643 137.24 48.1828C137.162 48.0742 137.104 47.9928 137.066 47.9385C137.074 47.8932 137.069 47.857 137.05 47.8299C137.039 47.7574 137.052 47.6895 137.088 47.6262C137.274 47.427 137.388 47.2143 137.431 46.9879C137.483 46.7164 137.578 46.4765 137.716 46.2683C137.796 45.9786 137.909 45.707 138.055 45.4535C138.23 45.1819 138.391 44.9194 138.537 44.6659C138.761 44.521 138.957 44.3943 139.125 44.2856C139.293 44.177 139.48 44.0955 139.687 44.0411C139.79 44.0139 139.897 43.9641 140.009 43.8917C140.121 43.8193 140.233 43.7468 140.345 43.6744C140.698 43.3666 141.112 43.3167 141.588 43.5248C141.74 43.6244 141.896 43.6425 142.056 43.5791C142.215 43.5157 142.37 43.4749 142.52 43.4568C142.974 43.5201 143.379 43.7146 143.733 44.0404C143.905 44.1671 144.077 44.2938 144.249 44.4205C144.449 44.5291 144.621 44.6558 144.765 44.8006C144.937 44.9273 145.105 45.0767 145.268 45.2486C145.44 45.3753 145.598 45.5111 145.742 45.6559ZM152.161 55.1866C152.221 55.3857 152.328 55.5939 152.483 55.8111C152.618 56.0012 152.763 56.2048 152.918 56.422C153.081 56.594 153.226 56.7977 153.353 57.033C153.46 57.2412 153.581 57.4403 153.717 57.6304L153.713 58.2278C153.95 58.273 154.14 58.368 154.284 58.5128C154.428 58.6576 154.568 58.8251 154.703 59.0151C154.838 59.2052 154.983 59.4089 155.138 59.6261C155.273 59.8162 155.404 60.0289 155.531 60.2642C155.638 60.4724 155.727 60.7122 155.798 60.9838C155.869 61.2553 155.963 61.5314 156.081 61.812C156.275 62.0835 156.493 62.4184 156.735 62.8167C156.987 63.1696 157.252 63.5136 157.531 63.8485C157.927 64.3462 158.276 64.8938 158.579 65.4912C158.862 66.0614 159.042 66.6589 159.119 67.2834C159.274 67.5007 159.456 67.6998 159.667 67.8808C159.858 68.0346 160.059 68.2021 160.27 68.3831C160.289 68.4102 160.294 68.4464 160.286 68.4917C160.297 68.5641 160.321 68.6275 160.36 68.6818C160.355 68.9624 160.303 69.2339 160.204 69.4965C160.176 69.5146 160.158 69.5463 160.149 69.5915L159.981 69.7002C159.673 69.8994 159.361 70.1212 159.045 70.3657C158.776 70.6192 158.416 70.8319 157.966 71.004C157.816 71.0221 157.641 71.0358 157.444 71.0448C157.274 71.0358 157.099 71.0494 156.921 71.0857C156.809 71.1581 156.659 71.2351 156.472 71.3166C156.332 71.4071 156.182 71.4841 156.023 71.5475C155.625 71.448 155.218 71.3349 154.8 71.2082C154.678 71.2082 154.551 71.2309 154.42 71.2762C154.288 71.3215 154.147 71.3532 153.997 71.3713C153.704 71.3623 153.48 71.1903 153.323 70.8555C153.166 70.5206 153.052 70.2173 152.982 69.9458C152.814 69.5385 152.559 69.2081 152.215 68.9547L151.641 68.4932C151.486 68.2759 151.327 68.0813 151.164 67.9094C151 67.7374 150.865 67.5474 150.758 67.3392C150.592 67.0495 150.409 66.7916 150.207 66.5653C150.033 66.3209 149.849 66.063 149.656 65.7915C149.413 65.3932 149.166 65.0176 148.914 64.6646C148.644 64.2845 148.383 63.9179 148.131 63.5649C148.035 63.4292 147.991 63.3386 147.999 63.2934C147.985 62.9856 147.91 62.7367 147.774 62.5466C147.62 62.3294 147.465 62.1122 147.31 61.895C147.128 61.6958 146.973 61.4786 146.846 61.2433C146.728 60.9627 146.573 60.7455 146.382 60.5916C146.208 60.3473 146.044 60.1165 145.889 59.8992C145.715 59.6549 145.555 59.4014 145.409 59.1389C145.34 58.9851 145.258 58.8403 145.161 58.7045C145.073 58.5235 144.933 58.356 144.742 58.2022C144.917 57.9306 145.068 57.7133 145.198 57.5503C145.355 57.3693 145.517 57.2244 145.685 57.1158C145.797 57.0433 145.909 56.9709 146.021 56.8985C146.161 56.8079 146.277 56.7128 146.37 56.6133C146.611 56.3779 146.81 56.1696 146.968 55.9886C147.127 55.9252 147.277 55.907 147.419 55.9342C147.57 55.916 147.721 55.8979 147.871 55.8798C148.067 55.753 148.234 55.5855 148.372 55.3773C148.549 55.2234 148.726 55.1283 148.905 55.0921C149.111 55.0377 149.334 55.092 149.573 55.2549C149.62 55.2639 149.653 55.282 149.672 55.3092C149.72 55.3182 149.767 55.3273 149.814 55.3363L150.224 55.3091C150.44 55.2095 150.588 55.0737 150.67 54.9017C150.733 54.7025 150.824 54.5441 150.945 54.4264C151.113 54.3178 151.259 54.3223 151.384 54.4399C151.603 54.5757 151.862 54.8245 152.161 55.1866Z" fill="#FFC704"/>
<path d="M168.163 35.527C168.389 36.0993 168.681 36.6469 169.037 37.1699C169.373 37.6663 169.709 38.1628 170.044 38.6592C170.38 39.1557 170.74 39.6559 171.124 40.16C171.487 40.6374 171.85 41.1149 172.213 41.5924C172.516 41.9903 172.792 42.4072 173.04 42.843C173.287 43.2789 173.559 43.7185 173.855 44.1619C173.935 44.268 174.013 44.3968 174.086 44.5484C174.187 44.6811 174.288 44.8137 174.389 44.9463C174.671 45.3177 174.879 45.7005 175.012 46.0947C175.192 46.4964 175.413 46.8697 175.675 47.2145C175.817 47.4002 175.954 47.6087 176.088 47.8398C176.222 48.071 176.329 48.3211 176.408 48.5902C176.482 48.7418 176.619 48.9503 176.821 49.2155C176.955 49.4467 177.062 49.6969 177.141 49.9659C177.228 50.1896 177.314 50.4132 177.401 50.6368C177.467 50.8338 177.553 51.0575 177.66 51.3076C177.671 51.5426 177.693 51.7908 177.725 52.0524C177.763 52.2684 177.789 52.4939 177.8 52.7289C177.654 53.0322 177.58 53.3468 177.577 53.6727C177.464 54.0745 177.361 54.4896 177.269 54.9179C177.204 55.3273 177.129 55.7234 177.043 56.1062C176.916 56.599 176.688 56.9591 176.359 57.1866C176.332 57.2056 176.301 57.2473 176.266 57.3117C176.259 57.3572 176.228 57.3989 176.173 57.4368C175.692 57.8501 175.388 58.3031 175.261 58.7958C175.254 58.8413 175.223 58.883 175.168 58.9209C175.161 58.9664 175.15 59.0346 175.136 59.1256C174.819 59.4251 174.429 59.6545 173.965 59.8138C173.527 59.9541 173.097 60.049 172.675 60.0984L172.017 60.5533C171.907 60.6292 171.787 60.6917 171.657 60.741C171.548 60.8169 171.414 60.8889 171.257 60.9572C170.396 61.3099 169.451 61.4977 168.422 61.5207C168.279 61.498 168.143 61.5113 168.013 61.5606C167.883 61.6099 167.74 61.6687 167.582 61.7369C167.398 61.8241 167.203 61.8981 166.998 61.9588C166.793 62.0195 166.588 62.0802 166.383 62.1408C166.186 62.1561 165.995 62.1258 165.812 62.05C165.609 61.9477 165.426 61.872 165.263 61.8227C164.924 61.6522 164.619 61.4988 164.348 61.3624C164.056 61.1995 163.741 61.0328 163.402 60.8623C163.131 60.7259 162.846 60.599 162.548 60.4816C162.229 60.3376 161.93 60.2202 161.652 60.1293C161.632 60.1027 161.635 60.08 161.663 60.061C161.69 60.0421 161.694 60.0193 161.674 59.9928L161.531 59.9701C161.551 59.9966 161.558 60.0326 161.55 60.0781C161.55 60.0781 161.56 60.0914 161.581 60.1179C161.533 60.1103 161.482 60.1255 161.427 60.1634C161.379 60.1559 161.332 60.1483 161.284 60.1407C161.134 60.1635 160.991 60.1408 160.856 60.0726C160.7 59.9779 160.554 59.8964 160.419 59.8282C160.38 59.6122 160.259 59.3715 160.058 59.1063C159.85 58.7235 159.604 58.4279 159.32 58.2195C158.908 57.8974 158.55 57.5374 158.247 57.1395C157.972 56.7226 157.687 56.2925 157.391 55.8491C157.29 55.7165 157.214 55.5061 157.162 55.2181C157.011 54.6344 156.818 54.1607 156.583 53.7969C156.574 53.2359 156.491 52.6863 156.332 52.1481C156.174 51.61 156.063 51.0793 156 50.5563C156.097 50.4085 156.166 50.2796 156.208 50.1696C156.277 50.0408 156.356 49.9251 156.446 49.8228C156.46 49.7318 156.451 49.6371 156.418 49.5385C156.385 49.44 156.389 49.3357 156.431 49.2258C156.473 49.1159 156.539 49.0097 156.628 48.9074C156.697 48.7785 156.791 48.6534 156.907 48.5321C156.902 48.4146 156.882 48.3066 156.849 48.208C156.843 48.0905 156.838 47.973 156.832 47.8555C156.854 47.7191 156.878 47.6414 156.906 47.6224C157.375 46.9742 157.912 46.36 158.516 45.78C158.606 45.6776 158.705 45.5885 158.815 45.5127C158.932 45.3914 159.035 45.2795 159.125 45.1772C159.4 44.8246 159.727 44.5384 160.103 44.3185C160.48 44.0986 160.836 43.8521 161.172 43.5791C161.255 43.5223 161.347 43.4786 161.45 43.4483C161.579 43.399 161.696 43.3592 161.798 43.3288C161.88 43.272 162.01 43.2227 162.188 43.1809C162.365 43.1392 162.447 43.0823 162.434 43.0103C162.668 42.7677 162.88 42.6615 163.071 42.6918C163.288 42.7031 163.397 42.7088 163.397 42.7088C163.472 42.6974 163.592 42.6348 163.757 42.5211C163.928 42.3618 164.028 42.2727 164.055 42.2538C164.262 42.0301 164.318 41.8292 164.224 41.6511C164.138 41.4275 164.067 41.3346 164.012 41.3725L163.87 41.3498C163.635 40.986 163.359 40.6506 163.041 40.3437C162.752 40.0178 162.489 39.6729 162.254 39.3091C162.181 39.1575 162.093 39.0154 161.993 38.8828C161.871 38.7236 161.76 38.5777 161.659 38.4451C161.531 38.3314 161.44 38.212 161.387 38.087C161.313 37.9354 161.226 37.7933 161.125 37.6606C161.024 37.528 160.934 37.4086 160.853 37.3025C160.779 37.1509 160.685 37.0543 160.57 37.0126C160.326 36.8573 160.123 36.6735 159.962 36.4613C159.828 36.2301 159.707 35.9894 159.601 35.7393C159.461 35.3906 159.294 35.0609 159.099 34.7501C158.932 34.4204 158.69 34.1021 158.372 33.7952L158.221 33.5962C158.129 33.2551 157.982 32.9519 157.78 32.6866C157.606 32.4024 157.451 32.1447 157.317 31.9135C157.313 31.633 157.387 31.3999 157.538 31.2142C157.697 30.9829 157.791 30.7763 157.82 30.5944C158.238 30.2645 158.65 29.9802 159.054 29.7413C159.458 29.5024 159.811 29.1972 160.114 28.8257C160.367 28.7726 160.596 28.7157 160.8 28.655C161.013 28.5488 161.197 28.4616 161.355 28.3933C161.818 28.397 162.18 28.5713 162.443 28.9161C162.544 29.0488 162.655 29.1947 162.776 29.3538C162.897 29.513 163.004 29.6817 163.098 29.8598C163.206 29.9469 163.318 30.0113 163.433 30.053C163.549 30.0947 163.671 30.1723 163.799 30.286C163.812 30.358 163.845 30.4566 163.898 30.5816C163.959 30.6612 164.016 30.7636 164.069 30.8886C164.177 30.9758 164.306 31.0895 164.454 31.2297C164.603 31.3699 164.741 31.4968 164.869 31.6105C165.192 32.0349 165.505 32.4461 165.808 32.844C166.138 33.223 166.441 33.6209 166.716 34.0377C167.039 34.4622 167.251 34.7407 167.352 34.8734C167.48 34.987 167.751 35.2049 168.163 35.527ZM169.788 49.7061C169.545 49.5507 169.325 49.3992 169.129 49.2514C168.94 49.0581 168.757 48.9009 168.581 48.7796C168.358 48.6508 168.117 48.5542 167.859 48.4898C167.628 48.4065 167.401 48.3004 167.177 48.1716C166.802 48.2285 166.496 48.2381 166.258 48.2002C166.08 48.242 165.913 48.297 165.756 48.3652C165.626 48.4145 165.482 48.4733 165.325 48.5416C165.175 48.5643 165.035 48.6004 164.905 48.6497C164.782 48.6535 164.656 48.6801 164.526 48.7294C164.395 48.9416 164.264 49.1539 164.132 49.3662C164.028 49.5595 163.924 49.7529 163.82 49.9462C163.523 50.4352 163.484 50.9886 163.703 51.6064C163.756 51.7314 163.823 51.847 163.904 51.9531C163.985 52.0592 164.062 52.1881 164.135 52.3397C164.168 52.4382 164.174 52.5557 164.152 52.6922C164.158 52.8097 164.184 52.9537 164.23 53.1243L164.775 53.8405C165.092 54.1474 165.441 54.4127 165.82 54.6362C166.206 54.8143 166.659 54.8862 167.177 54.852C167.279 54.8216 167.388 54.8273 167.503 54.8689C167.626 54.8651 167.762 54.8518 167.912 54.8291C168.198 54.8745 168.423 54.8403 168.587 54.7266C168.986 54.3702 169.38 54.0366 169.772 53.7257C170.142 53.3882 170.459 53.0073 170.722 52.5827C170.786 52.3363 170.808 52.1184 170.789 51.9288C170.791 51.7659 170.789 51.6256 170.783 51.5081C170.757 51.3641 170.745 51.2106 170.746 51.0476L170.232 50.3712C170.131 50.2385 170.04 50.1192 169.959 50.013C169.879 49.9069 169.822 49.8046 169.788 49.7061Z" fill="#FFC704"/>
<path d="M183.826 26.4204C184.019 26.8156 184.091 27.2188 184.04 27.63C184.017 27.8127 184.018 27.9984 184.043 28.1871C184.074 28.3301 184.057 28.4671 183.992 28.5982C183.969 28.781 183.963 28.9309 183.973 29.0481C183.982 29.1653 184.013 29.3083 184.065 29.4771C184.142 29.8346 183.936 30.0293 183.446 30.0611C183.201 30.077 183.009 30.0532 182.871 29.9897L182.358 30.3085C182.305 30.3483 182.254 30.3652 182.206 30.3592C182.03 30.4069 181.873 30.399 181.735 30.3354C181.576 30.2461 181.398 30.2123 181.201 30.2342C180.652 30.3515 180.145 30.5204 179.68 30.7409C179.216 30.9614 178.822 31.2952 178.499 31.7421C178.505 32.2764 178.532 32.6508 178.578 32.8653C178.603 33.0539 178.71 33.3687 178.898 33.8096C179.045 33.9904 179.22 34.1512 179.421 34.2922C179.628 34.3875 179.842 34.5186 180.064 34.6854C180.367 34.7926 180.657 34.8055 180.934 34.724C181.041 34.6445 181.159 34.578 181.287 34.5243C181.394 34.4449 181.512 34.3783 181.64 34.3247C181.81 34.3227 181.967 34.3306 182.111 34.3485C182.233 34.3405 182.356 34.3325 182.478 34.3246C182.75 34.2888 183.04 34.3017 183.348 34.3632C183.662 34.379 183.944 34.3562 184.195 34.2945C184.493 34.2389 184.768 34.1803 185.018 34.1187C185.269 34.0571 185.53 34.0084 185.802 33.9726C185.984 33.8792 186.17 33.8444 186.361 33.8682C186.58 33.8722 186.795 33.899 187.007 33.9486C187.214 34.0439 187.434 34.1293 187.668 34.2047C187.928 34.2603 188.186 34.3387 188.441 34.44C188.753 34.6644 189.062 34.9116 189.369 35.1817C189.681 35.4061 189.974 35.6861 190.248 36.0217C190.438 36.2541 190.641 36.4765 190.858 36.689C191.053 36.8757 191.259 37.0752 191.476 37.2877C191.608 37.397 191.737 37.529 191.864 37.6839C192.017 37.819 192.154 37.9868 192.275 38.1874C192.321 38.4019 192.378 38.6293 192.445 38.8696C192.512 39.1099 192.604 39.3532 192.719 39.5995C192.928 40.0662 193.076 40.5369 193.163 41.0116C193.161 41.2201 193.146 41.4386 193.118 41.667C193.089 41.8954 193.061 42.1238 193.032 42.3523C192.994 42.4635 192.98 42.5777 192.99 42.6949C192.999 42.8121 192.999 42.9163 192.987 43.0077C192.846 43.3613 192.78 43.7009 192.788 44.0266C192.796 44.3524 192.828 44.6811 192.884 45.0128C192.717 45.1776 192.551 45.3425 192.385 45.5074C192.24 45.6981 192.081 45.8987 191.909 46.1093C191.77 46.2543 191.641 46.4122 191.522 46.583C191.425 46.7797 191.33 46.9535 191.239 47.1044L190.275 47.8196C189.875 47.909 189.552 48.0659 189.305 48.2904C189.059 48.5149 188.82 48.7751 188.589 49.0711C188.363 49.3214 188.155 49.4346 187.963 49.4108C187.671 49.4208 187.385 49.4665 187.108 49.548C186.878 49.6354 186.659 49.7357 186.451 49.849C185.973 49.7894 185.491 49.7528 185.007 49.7389C184.523 49.7251 184.044 49.6656 183.571 49.5603C183.508 49.4829 183.431 49.4154 183.341 49.3578C183.257 49.2545 183.183 49.1642 183.12 49.0867C182.951 48.8802 182.804 48.6994 182.677 48.5445C182.556 48.344 182.422 48.1533 182.275 47.9726C182.06 47.5515 181.909 47.1037 181.822 46.629C181.762 46.1344 181.689 45.6498 181.602 45.1751C181.784 45.0818 181.952 44.9983 182.107 44.9248C182.262 44.8513 182.441 44.7808 182.644 44.7132C182.862 44.7172 183.096 44.6883 183.347 44.6267C183.597 44.5651 183.848 44.5035 184.099 44.4419C184.445 44.3922 184.675 44.3048 184.787 44.1796C184.894 44.1002 184.999 44.0436 185.1 44.0098C185.201 43.976 185.316 43.9323 185.444 43.8787C185.871 43.7694 186.147 43.5022 186.273 43.0771C186.343 42.9003 186.401 42.7335 186.445 42.5766C186.494 42.374 186.496 42.1654 186.449 41.9509C186.323 41.796 186.186 41.6282 186.038 41.4475C185.87 41.241 185.725 41.0374 185.604 40.8368C185.541 40.7594 185.464 40.6918 185.374 40.6343C185.284 40.5767 185.194 40.5191 185.104 40.4615C184.993 40.3781 184.892 40.3076 184.802 40.25L183.892 40.2412C183.68 40.1916 183.494 40.1221 183.335 40.0327C183.155 39.9175 182.967 39.8709 182.769 39.8928L181.584 40.3368C181.361 40.3786 181.153 40.3875 180.962 40.3637C180.77 40.3399 180.589 40.329 180.419 40.331C180.323 40.3191 180.238 40.3201 180.163 40.334C180.089 40.348 180.014 40.3619 179.94 40.3758C179.811 40.4294 179.683 40.4831 179.555 40.5367C179.427 40.5904 179.275 40.641 179.099 40.6887C178.833 40.6788 178.524 40.7216 178.172 40.8169C177.864 40.7554 177.609 40.6542 177.408 40.5132C177.207 40.3722 176.976 40.2739 176.716 40.2183C176.503 40.1687 176.28 40.1061 176.047 40.0307C175.813 39.9553 175.566 39.8897 175.306 39.8342C174.993 39.6098 174.681 39.3854 174.369 39.161C174.062 38.8909 173.753 38.6437 173.441 38.4193C172.991 38.1313 172.672 37.7669 172.483 37.326C172.347 37.0539 172.2 36.7689 172.043 36.471C171.913 36.1533 171.795 35.8256 171.692 35.4879C171.599 35.0589 171.452 34.4839 171.25 33.763C171.181 33.1513 171.223 32.5187 171.377 31.8652C171.537 31.166 171.683 30.4768 171.816 29.7975C171.881 29.6664 171.97 29.5383 172.083 29.4132C172.174 29.2622 172.263 29.1341 172.349 29.0288C172.586 28.6871 172.764 28.4309 172.882 28.2601C172.98 28.0634 173.111 27.8827 173.278 27.7178C173.471 27.5331 173.768 27.2917 174.17 26.9937L174.25 26.9341C174.519 26.5269 174.849 26.22 175.239 26.0134C175.656 25.7869 176.081 25.5962 176.513 25.4412C176.593 25.3816 176.684 25.3349 176.785 25.3012C176.892 25.2217 176.959 25.172 176.986 25.1522C177.332 25.1025 177.66 25.1084 177.968 25.1699C178.303 25.2116 178.641 25.2304 178.981 25.2264C179.178 25.2045 179.389 25.1727 179.613 25.131C179.816 25.0634 180.015 25.0187 180.213 24.9968C180.649 25.0047 181.066 25.0682 181.464 25.1873C181.889 25.2866 182.29 25.3828 182.668 25.4761C182.869 25.6171 183.056 25.7681 183.231 25.9289C183.405 26.0898 183.603 26.2536 183.826 26.4204Z" fill="#FFC704"/>
</svg>
